<mxfile modified="2020-10-21T07:44:38.985Z" host="app.diagrams.net" agent="5.0 (Windows NT 10.0; Win64; x64) AppleWebKit/537.36 (KHTML, like Gecko) Chrome/86.0.4240.75 Safari/537.36" etag="q1n4lCQMlooU7KN6559R" version="13.8.1" type="github">
  <diagram id="f106602c-feb2-e66a-4537-3a34d633f6aa" name="Page-1">
    <mxGraphModel dx="832" dy="423" grid="1" gridSize="10" guides="1" tooltips="1" connect="1" arrows="1" fold="1" page="1" pageScale="1" pageWidth="1169" pageHeight="827" background="#ffffff" math="0" shadow="0">
      <root>
        <mxCell id="0" />
        <mxCell id="1" parent="0" />
        <mxCell id="twlpsJDJIZV7ccSAEu-v-691" value="" style="image;html=1;image=img/lib/clip_art/general/Battery_allstates_128x128.png" vertex="1" parent="1">
          <mxGeometry x="250" y="308" width="30" height="40" as="geometry" />
        </mxCell>
        <mxCell id="twlpsJDJIZV7ccSAEu-v-692" value="" style="image;html=1;image=img/lib/clip_art/general/Battery_100_128x128.png" vertex="1" parent="1">
          <mxGeometry x="250" y="358" width="30" height="40" as="geometry" />
        </mxCell>
        <mxCell id="twlpsJDJIZV7ccSAEu-v-695" value="Test&amp;nbsp;" style="html=1;fillColor=#5184F3;strokeColor=none;verticalAlign=top;labelPosition=center;verticalLabelPosition=bottom;align=center;spacingTop=-6;fontSize=11;fontStyle=1;fontColor=#999999;shape=mxgraph.gcp2.hexIcon;prIcon=cloud_test_lab" vertex="1" parent="1">
          <mxGeometry x="375" y="240" width="45" height="38" as="geometry" />
        </mxCell>
        <mxCell id="twlpsJDJIZV7ccSAEu-v-701" value="" style="edgeStyle=orthogonalEdgeStyle;fontSize=12;html=1;endArrow=blockThin;endFill=1;rounded=0;strokeWidth=2;endSize=4;startSize=4;dashed=0;strokeColor=#4284F3;entryX=0;entryY=0.5;entryDx=0;entryDy=0;" edge="1" parent="1" target="twlpsJDJIZV7ccSAEu-v-713">
          <mxGeometry width="100" relative="1" as="geometry">
            <mxPoint x="440" y="368" as="sourcePoint" />
            <mxPoint x="480" y="368" as="targetPoint" />
          </mxGeometry>
        </mxCell>
        <mxCell id="twlpsJDJIZV7ccSAEu-v-703" value="" style="edgeStyle=orthogonalEdgeStyle;fontSize=12;html=1;endArrow=blockThin;endFill=1;rounded=0;strokeWidth=2;endSize=4;startSize=4;dashed=0;strokeColor=#4284F3;" edge="1" parent="1">
          <mxGeometry width="100" relative="1" as="geometry">
            <mxPoint x="300" y="370" as="sourcePoint" />
            <mxPoint x="339.9999999999999" y="370" as="targetPoint" />
          </mxGeometry>
        </mxCell>
        <mxCell id="twlpsJDJIZV7ccSAEu-v-704" value="" style="rounded=0;whiteSpace=wrap;html=1;" vertex="1" parent="1">
          <mxGeometry x="370" y="302" width="60" height="158" as="geometry" />
        </mxCell>
        <mxCell id="twlpsJDJIZV7ccSAEu-v-705" value="&lt;span&gt;&lt;font style=&quot;font-size: 8px&quot;&gt;循环寿命&lt;/font&gt;&lt;/span&gt;" style="text;html=1;strokeColor=none;fillColor=none;align=center;verticalAlign=middle;whiteSpace=wrap;rounded=0;" vertex="1" parent="1">
          <mxGeometry x="372.5" y="308" width="55" height="20" as="geometry" />
        </mxCell>
        <mxCell id="twlpsJDJIZV7ccSAEu-v-709" value="&lt;font style=&quot;font-size: 12px&quot;&gt;充电特性&lt;/font&gt;" style="text;html=1;strokeColor=none;fillColor=none;align=center;verticalAlign=middle;whiteSpace=wrap;rounded=0;" vertex="1" parent="1">
          <mxGeometry x="365" y="348" width="70" height="20" as="geometry" />
        </mxCell>
        <mxCell id="twlpsJDJIZV7ccSAEu-v-710" value="&lt;font style=&quot;font-size: 12px&quot;&gt;充放电效率&lt;/font&gt;" style="text;html=1;strokeColor=none;fillColor=none;align=center;verticalAlign=middle;whiteSpace=wrap;rounded=0;" vertex="1" parent="1">
          <mxGeometry x="360" y="388" width="80" height="20" as="geometry" />
        </mxCell>
        <mxCell id="twlpsJDJIZV7ccSAEu-v-712" value="&lt;span&gt;&lt;font style=&quot;font-size: 12px&quot;&gt;容量&lt;/font&gt;&lt;/span&gt;" style="text;html=1;strokeColor=none;fillColor=none;align=center;verticalAlign=middle;whiteSpace=wrap;rounded=0;" vertex="1" parent="1">
          <mxGeometry x="380" y="428" width="40" height="20" as="geometry" />
        </mxCell>
        <mxCell id="twlpsJDJIZV7ccSAEu-v-713" value="" style="shape=mxgraph.gcp2.doubleRect;strokeColor=#dddddd;shadow=1;strokeWidth=1;" vertex="1" parent="1">
          <mxGeometry x="520" y="260" width="144" height="68" as="geometry" />
        </mxCell>
        <mxCell id="twlpsJDJIZV7ccSAEu-v-714" value="&lt;font color=&quot;#000000&quot;&gt;机器学习&lt;/font&gt;&lt;br&gt;Transfer" style="dashed=0;connectable=0;html=1;fillColor=#5184F3;strokeColor=none;shape=mxgraph.gcp2.hexIcon;prIcon=transfer_appliance;part=1;labelPosition=right;verticalLabelPosition=middle;align=left;verticalAlign=middle;spacingLeft=5;fontColor=#999999;fontSize=12;" vertex="1" parent="twlpsJDJIZV7ccSAEu-v-713">
          <mxGeometry y="0.5" width="44" height="39" relative="1" as="geometry">
            <mxPoint x="5" y="-19.5" as="offset" />
          </mxGeometry>
        </mxCell>
        <mxCell id="twlpsJDJIZV7ccSAEu-v-716" value="" style="edgeStyle=orthogonalEdgeStyle;fontSize=12;html=1;endArrow=blockThin;endFill=1;rounded=0;strokeWidth=2;endSize=4;startSize=4;dashed=0;strokeColor=#4284F3;" edge="1" parent="1" target="twlpsJDJIZV7ccSAEu-v-717">
          <mxGeometry width="100" relative="1" as="geometry">
            <mxPoint x="660" y="368" as="sourcePoint" />
            <mxPoint x="700" y="368" as="targetPoint" />
          </mxGeometry>
        </mxCell>
        <mxCell id="twlpsJDJIZV7ccSAEu-v-717" value="综合评价指标" style="text;html=1;strokeColor=none;fillColor=none;align=center;verticalAlign=middle;whiteSpace=wrap;rounded=0;" vertex="1" parent="1">
          <mxGeometry x="680" y="358" width="50" height="20" as="geometry" />
        </mxCell>
        <mxCell id="twlpsJDJIZV7ccSAEu-v-718" value="" style="image;html=1;image=img/lib/clip_art/general/Battery_75_128x128.png" vertex="1" parent="1">
          <mxGeometry x="250" y="414" width="30" height="40" as="geometry" />
        </mxCell>
        <mxCell id="twlpsJDJIZV7ccSAEu-v-721" value="" style="edgeStyle=orthogonalEdgeStyle;fontSize=12;html=1;endArrow=blockThin;endFill=1;rounded=0;strokeWidth=2;endSize=4;startSize=4;dashed=0;strokeColor=#4284F3;entryX=0;entryY=0.5;entryDx=0;entryDy=0;" edge="1" parent="1" target="twlpsJDJIZV7ccSAEu-v-722">
          <mxGeometry width="100" relative="1" as="geometry">
            <mxPoint x="435" y="368" as="sourcePoint" />
            <mxPoint x="470" y="420" as="targetPoint" />
          </mxGeometry>
        </mxCell>
        <mxCell id="twlpsJDJIZV7ccSAEu-v-722" value="" style="shape=datastore;whiteSpace=wrap;html=1;" vertex="1" parent="1">
          <mxGeometry x="525" y="408" width="60" height="60" as="geometry" />
        </mxCell>
      </root>
    </mxGraphModel>
  </diagram>
</mxfile>
